<svg xmlns="http://www.w3.org/2000/svg" viewBox="50 2 200 204">
<style>
.o{stroke:#1b1240;stroke-width:5;stroke-linejoin:round;stroke-linecap:round}
.o3{stroke:#1b1240;stroke-width:3.5;stroke-linejoin:round;stroke-linecap:round}
</style>
<path class="o" d="M150 40 V20" fill="none"/>
<circle class="o" cx="150" cy="15" r="8" fill="#5ee7ff"/>
<circle cx="150" cy="118" r="82" fill="#d7f4ff"/>
<path class="o3" d="M104 92 C80 96 76 142 94 158 C110 152 114 122 114 100Z" fill="#a86b3c"/>
<path class="o3" d="M196 92 C220 96 224 142 206 158 C190 152 186 122 186 100Z" fill="#a86b3c"/>
<ellipse class="o3" cx="150" cy="122" rx="50" ry="48" fill="#f4d7ad"/>
<ellipse cx="132" cy="112" rx="17" ry="16" fill="#a86b3c"/>
<circle cx="132" cy="115" r="6.5" fill="#1b1240"/><circle cx="168" cy="115" r="6.5" fill="#1b1240"/>
<circle cx="134.5" cy="112.5" r="2.2" fill="#fff"/><circle cx="170.5" cy="112.5" r="2.2" fill="#fff"/>
<ellipse class="o3" cx="150" cy="143" rx="25" ry="18" fill="#fff"/>
<ellipse cx="150" cy="135" rx="9.5" ry="6.5" fill="#1b1240"/>
<path class="o3" d="M150 140 V147 M150 147 C144 156 135 153 133 147 M150 147 C156 156 165 153 167 147" fill="none" stroke-width="3"/>
<path class="o3" d="M144 152 C144 167 156 167 156 152Z" fill="#ff87af" stroke-width="2.5"/>
<circle class="o" cx="150" cy="118" r="82" fill="none" stroke-width="6"/>
<path d="M90 86 C99 62 120 50 146 47" fill="none" stroke="#fff" stroke-width="7" stroke-linecap="round" opacity=".9"/>
<circle cx="84" cy="104" r="3.5" fill="#fff" opacity=".9"/>
</svg>